# xmcd CD database file
#
# Track frame offsets:
#	150
#	18225
#	37800
#
# Disc length: 745 seconds
#
# Revision: 0
# Processed by: cddbd v1.5.1PL2 Copyright (c) Steve Scherf et al.
# Submitted via: CDex 1.51
#
DISCID=1402e703
DTITLE=maria - 小さな詩
DYEAR=2006
DGENRE=Japanese Pop
TTITLE0=小さな詩
TTITLE1=空来〜ソラ〜
TTITLE2=小さな詩（inst
EXTD=YEAR: 2006
EXTT0=
EXTT1=
EXTT2=
PLAYORDER=
